<mxfile host="Electron" agent="Mozilla/5.0 (Windows NT 10.0; Win64; x64) AppleWebKit/537.36 (KHTML, like Gecko) draw.io/26.0.9 Chrome/128.0.6613.186 Electron/32.2.5 Safari/537.36" version="26.0.9">
  <diagram name="Seite-1" id="RTYmkfs9EEMRlPURSYDf">
    <mxGraphModel dx="2074" dy="1196" grid="1" gridSize="10" guides="1" tooltips="1" connect="1" arrows="1" fold="1" page="1" pageScale="1" pageWidth="400" pageHeight="350" math="0" shadow="0">
      <root>
        <mxCell id="0" />
        <mxCell id="1" parent="0" />
        <mxCell id="oSMi1Kr6ffqllNNBF8bA-4" value="" style="endArrow=open;startArrow=open;html=1;rounded=0;strokeWidth=10;startFill=0;endFill=0;endSize=50;startSize=50;strokeColor=#7EA6E0;" parent="1" edge="1">
          <mxGeometry width="50" height="50" relative="1" as="geometry">
            <mxPoint x="341" y="280" as="sourcePoint" />
            <mxPoint x="340" y="57" as="targetPoint" />
          </mxGeometry>
        </mxCell>
        <mxCell id="ePiznqtSM8OYozfT2VmX-1" value="" style="ellipse;shape=cloud;whiteSpace=wrap;html=1;strokeWidth=10;" parent="1" vertex="1">
          <mxGeometry x="46" y="275" width="160" height="70" as="geometry" />
        </mxCell>
        <mxCell id="nEuVJ9_UD5ATHTzixx8A-1" value="" style="endArrow=none;html=1;rounded=0;entryX=0.25;entryY=0;entryDx=0;entryDy=0;strokeWidth=12;strokeColor=#FFB570;" parent="1" edge="1">
          <mxGeometry width="50" height="50" relative="1" as="geometry">
            <mxPoint x="127" y="309" as="sourcePoint" />
            <mxPoint x="184.23249999999962" y="212.7099999999998" as="targetPoint" />
          </mxGeometry>
        </mxCell>
        <mxCell id="nEuVJ9_UD5ATHTzixx8A-2" value="" style="endArrow=none;html=1;rounded=0;entryX=0.75;entryY=0;entryDx=0;entryDy=0;strokeWidth=12;strokeColor=#FFB570;" parent="1" edge="1">
          <mxGeometry width="50" height="50" relative="1" as="geometry">
            <mxPoint x="127" y="309" as="sourcePoint" />
            <mxPoint x="68.73749999999973" y="212.7099999999998" as="targetPoint" />
          </mxGeometry>
        </mxCell>
        <mxCell id="oSMi1Kr6ffqllNNBF8bA-1" value="" style="shape=trapezoid;perimeter=trapezoidPerimeter;whiteSpace=wrap;html=1;fixedSize=1;rotation=-180;size=25.01000000000022;strokeWidth=10;" parent="1" vertex="1">
          <mxGeometry x="10.989999999999995" y="162.28" width="230.99" height="71.43" as="geometry" />
        </mxCell>
        <mxCell id="oSMi1Kr6ffqllNNBF8bA-2" value="&lt;font style=&quot;color: rgb(126, 166, 224);&quot;&gt;10x03&lt;/font&gt;" style="rounded=0;whiteSpace=wrap;html=1;strokeWidth=10;fontSize=75;" parent="1" vertex="1">
          <mxGeometry x="10" y="7" width="234" height="153" as="geometry" />
        </mxCell>
      </root>
    </mxGraphModel>
  </diagram>
</mxfile>
